<svg width="30" height="31" viewBox="0 0 30 31" fill="none" xmlns="http://www.w3.org/2000/svg">
<path fill-rule="evenodd" clip-rule="evenodd" d="M24.7736 26.3791C27.9734 23.6282 30 19.5508 30 15C30 6.71573 23.2843 0 15 0C6.7157 0 0 6.71573 0 15C0 19.5508 2.02649 23.6282 5.22632 26.3791C6.86084 22.696 10.6218 20.1189 15 20.1189C19.3782 20.1189 23.139 22.696 24.7736 26.3791ZM23.6031 27.2892C22.2799 23.9988 18.9786 21.6014 15 21.6014C11.0214 21.6014 7.72009 23.9988 6.39685 27.2892C8.83252 28.9974 11.7991 30 15 30C18.2009 30 21.1675 28.9974 23.6031 27.2892ZM15 17.8951C17.3514 17.8951 19.2577 15.9039 19.2577 13.4476C19.2577 10.9912 17.3514 9 15 9C12.6486 9 10.7423 10.9912 10.7423 13.4476C10.7423 15.9039 12.6486 17.8951 15 17.8951ZM15 16.4126C16.5676 16.4126 17.8385 15.0851 17.8385 13.4476C17.8385 11.81 16.5676 10.4825 15 10.4825C13.4324 10.4825 12.1615 11.81 12.1615 13.4476C12.1615 15.0851 13.4324 16.4126 15 16.4126Z" fill="#FF616D"/>
<circle cx="25" cy="27" r="3.5" fill="#0C6666" stroke="#FFF5EA"/>
</svg>
