<svg width="26" height="25" viewBox="0 0 26 25" fill="none" xmlns="http://www.w3.org/2000/svg">
<g clip-path="url(#clip0_153_7960)">
<path d="M10.5 15.625H10.4992C10.4992 14.993 10.5516 15.284 7.17695 8.53477C6.4875 7.15625 4.51328 7.15352 3.82266 8.53477C0.419531 15.3418 0.500781 15.0129 0.500781 15.625H0.5C0.5 17.3508 2.73867 18.75 5.5 18.75C8.26133 18.75 10.5 17.3508 10.5 15.625ZM5.5 9.375L8.3125 15H2.6875L5.5 9.375ZM25.4992 15.625C25.4992 14.993 25.5516 15.284 22.177 8.53477C21.4875 7.15625 19.5133 7.15352 18.8227 8.53477C15.4195 15.3418 15.5008 15.0129 15.5008 15.625H15.5C15.5 17.3508 17.7387 18.75 20.5 18.75C23.2613 18.75 25.5 17.3508 25.5 15.625H25.4992ZM17.6875 15L20.5 9.375L23.3125 15H17.6875ZM21.125 20H14.25V8.48633C15.1684 8.08437 15.8578 7.25664 16.0621 6.25H21.125C21.4703 6.25 21.75 5.97031 21.75 5.625V4.375C21.75 4.02969 21.4703 3.75 21.125 3.75H15.4859C14.9156 2.99531 14.0191 2.5 13 2.5C11.9809 2.5 11.0844 2.99531 10.5141 3.75H4.875C4.52969 3.75 4.25 4.02969 4.25 4.375V5.625C4.25 5.97031 4.52969 6.25 4.875 6.25H9.93789C10.1422 7.25625 10.8313 8.08437 11.75 8.48633V20H4.875C4.52969 20 4.25 20.2797 4.25 20.625V21.875C4.25 22.2203 4.52969 22.5 4.875 22.5H21.125C21.4703 22.5 21.75 22.2203 21.75 21.875V20.625C21.75 20.2797 21.4703 20 21.125 20Z" fill="black"/>
</g>
<defs>
<clipPath id="clip0_153_7960">
<rect width="25" height="25" fill="white" transform="translate(0.5)"/>
</clipPath>
</defs>
</svg>
