<svg width="25" height="25" viewBox="0 0 25 25" fill="none" xmlns="http://www.w3.org/2000/svg">
<path d="M15.625 16.4062C15.625 16.8379 15.2754 17.1875 14.8438 17.1875H10.1562C9.72461 17.1875 9.375 16.8379 9.375 16.4062V14.0625H0V21.0938C0 22.3438 1.09375 23.4375 2.34375 23.4375H22.6562C23.9062 23.4375 25 22.3438 25 21.0938V14.0625H15.625V16.4062ZM22.6562 6.25H18.75V3.90625C18.75 2.65625 17.6562 1.5625 16.4062 1.5625H8.59375C7.34375 1.5625 6.25 2.65625 6.25 3.90625V6.25H2.34375C1.09375 6.25 0 7.34375 0 8.59375V12.5H25V8.59375C25 7.34375 23.9062 6.25 22.6562 6.25ZM15.625 6.25H9.375V4.6875H15.625V6.25Z" fill="black"/>
</svg>
