<svg width="26" height="25" viewBox="0 0 26 25" fill="none" xmlns="http://www.w3.org/2000/svg">
<path d="M20.8125 1.5625H5.1875C3.46143 1.5625 2.0625 2.96143 2.0625 4.6875V20.3125C2.0625 22.0386 3.46143 23.4375 5.1875 23.4375H20.8125C22.5386 23.4375 23.9375 22.0386 23.9375 20.3125V4.6875C23.9375 2.96143 22.5386 1.5625 20.8125 1.5625ZM8.3125 18.75C7.44971 18.75 6.75 18.0503 6.75 17.1875C6.75 16.3247 7.44971 15.625 8.3125 15.625C9.17529 15.625 9.875 16.3247 9.875 17.1875C9.875 18.0503 9.17529 18.75 8.3125 18.75ZM8.3125 14.0625C7.44971 14.0625 6.75 13.3628 6.75 12.5C6.75 11.6372 7.44971 10.9375 8.3125 10.9375C9.17529 10.9375 9.875 11.6372 9.875 12.5C9.875 13.3628 9.17529 14.0625 8.3125 14.0625ZM8.3125 9.375C7.44971 9.375 6.75 8.67529 6.75 7.8125C6.75 6.94971 7.44971 6.25 8.3125 6.25C9.17529 6.25 9.875 6.94971 9.875 7.8125C9.875 8.67529 9.17529 9.375 8.3125 9.375ZM17.6875 18.75C16.8247 18.75 16.125 18.0503 16.125 17.1875C16.125 16.3247 16.8247 15.625 17.6875 15.625C18.5503 15.625 19.25 16.3247 19.25 17.1875C19.25 18.0503 18.5503 18.75 17.6875 18.75ZM17.6875 14.0625C16.8247 14.0625 16.125 13.3628 16.125 12.5C16.125 11.6372 16.8247 10.9375 17.6875 10.9375C18.5503 10.9375 19.25 11.6372 19.25 12.5C19.25 13.3628 18.5503 14.0625 17.6875 14.0625ZM17.6875 9.375C16.8247 9.375 16.125 8.67529 16.125 7.8125C16.125 6.94971 16.8247 6.25 17.6875 6.25C18.5503 6.25 19.25 6.94971 19.25 7.8125C19.25 8.67529 18.5503 9.375 17.6875 9.375Z" fill="black"/>
</svg>
